<svg aria-hidden="true" style="position: absolute; width: 0; height: 0; overflow: hidden;" version="1.1" xmlns="http://www.w3.org/2000/svg" xmlns:xlink="http://www.w3.org/1999/xlink">
<defs>
<symbol id="icon-gt-logo" viewBox="0 0 41 32">
<path d="M11.675 17.982h10.582v10.26h-4.362l-0.52-4.387c-0.496 1.57-1.379 2.734-2.652 3.494s-2.825 1.14-4.659 1.14c-1.669 0-3.156-0.372-4.461-1.115-1.289-0.743-2.305-1.809-3.048-3.197-0.727-1.388-1.090-3.007-1.090-4.857 0-2.957 0.884-5.295 2.652-7.013s4.519-2.577 8.253-2.577c2.131 0 4.007 0.347 5.626 1.041 1.636 0.694 3.023 1.768 4.163 3.222-0.743 0.38-2.197 1.14-4.362 2.28l-0.62 0.347c-0.644-0.644-1.396-1.123-2.255-1.437-0.859-0.331-1.768-0.496-2.726-0.496-1.586 0-2.767 0.421-3.544 1.264-0.777 0.826-1.165 1.85-1.165 3.073 0 1.322 0.413 2.387 1.239 3.197 0.843 0.81 2.123 1.214 3.841 1.214 0.743 0 1.462-0.107 2.156-0.322 0.711-0.215 1.305-0.587 1.784-1.115h-4.833v-4.015z"></path>
<path d="M38.662 8.715c-2.594-0.083-5.113-0.132-7.559-0.149v12.936h-6.196v-12.936c-2.462 0.017-4.973 0.066-7.534 0.149v-5.204h21.288v5.204z"></path>
</symbol>
<symbol id="icon-youtube-logo" viewBox="0 0 41 32">
<path d="M33.033 4.913c-2.51-0.628-13.179-0.628-13.179-0.628s-10.459 0-13.179 0.628c-1.464 0.418-2.51 1.464-2.929 2.929-0.418 2.719-0.418 8.158-0.418 8.158s0 5.439 0.628 8.158c0.418 1.464 1.464 2.51 2.929 2.929 2.51 0.628 13.179 0.628 13.179 0.628s10.459 0 13.179-0.628c1.464-0.418 2.51-1.464 2.929-2.929 0.627-2.719 0.627-8.158 0.627-8.158s0-5.439-0.837-8.158c-0.418-1.464-1.464-2.51-2.929-2.929zM16.716 11.898c0-0.409 0.442-0.666 0.798-0.463l7.178 4.101c0.358 0.205 0.358 0.721 0 0.926l-7.178 4.101c-0.356 0.203-0.798-0.053-0.798-0.463v-8.203z"></path>
</symbol>
<symbol id="icon-github-logo" viewBox="0 0 41 32">
<path d="M16.349 21.016c0 1.442-0.751 3.802-2.529 3.802s-2.529-2.36-2.529-3.802c0-1.442 0.751-3.802 2.529-3.802s2.529 2.36 2.529 3.802zM36.604 17.531c0 2.201-0.221 4.533-1.206 6.555-2.612 5.285-9.793 5.161-14.935 5.161-5.224 0-12.832 0.186-15.548-5.161-1.006-2.001-1.392-4.354-1.392-6.555 0-2.891 0.958-5.623 2.86-7.838-0.358-1.090-0.531-2.236-0.531-3.367 0-1.483 0.338-2.229 1.006-3.574 3.122 0 5.121 0.621 7.498 2.484 1.999-0.476 4.052-0.69 6.113-0.69 1.861 0 3.735 0.2 5.541 0.635 2.343-1.842 4.342-2.429 7.429-2.429 0.675 1.345 1.006 2.091 1.006 3.574 0 1.132-0.179 2.256-0.531 3.326 1.895 2.236 2.688 4.989 2.688 7.88zM32.172 21.016c0-3.029-1.84-5.699-5.065-5.699-1.303 0-2.55 0.235-3.859 0.414-1.027 0.159-2.054 0.221-3.108 0.221-1.048 0-2.074-0.062-3.108-0.221-1.289-0.179-2.55-0.414-3.859-0.414-3.225 0-5.065 2.67-5.065 5.699 0 6.058 5.541 6.989 10.365 6.989h3.322c4.845 0 10.379-0.925 10.379-6.989zM26.48 17.214c-1.778 0-2.529 2.36-2.529 3.802s0.751 3.802 2.529 3.802 2.529-2.36 2.529-3.802c0-1.442-0.751-3.802-2.529-3.802z"></path>
</symbol>
</defs>
</svg>
