<svg aria-hidden="true" style="position: absolute; width: 0; height: 0; overflow: hidden;" version="1.1" xmlns="http://www.w3.org/2000/svg" xmlns:xlink="http://www.w3.org/1999/xlink">
<defs>
<symbol id="icon-home" viewBox="0 0 24 24">
<path d="M2.386 8.211c-0.236 0.184-0.386 0.469-0.386 0.789v11c0 0.828 0.337 1.58 0.879 2.121s1.293 0.879 2.121 0.879h14c0.828 0 1.58-0.337 2.121-0.879s0.879-1.293 0.879-2.121v-11c-0.001-0.3-0.134-0.593-0.386-0.789l-9-7c-0.358-0.275-0.861-0.285-1.228 0zM16 21v-9c0-0.552-0.448-1-1-1h-6c-0.552 0-1 0.448-1 1v9h-3c-0.276 0-0.525-0.111-0.707-0.293s-0.293-0.431-0.293-0.707v-10.511l8-6.222 8 6.222v10.511c0 0.276-0.111 0.525-0.293 0.707s-0.431 0.293-0.707 0.293zM10 21v-8h4v8z"></path>
</symbol>
<symbol id="icon-text-book" viewBox="0 0 24 24">
<path d="M21 4v13h-6c-0.728 0-1.412 0.195-2 0.535v-10.535c0-0.829 0.335-1.577 0.879-2.121s1.292-0.879 2.121-0.879zM11 17.535c-0.588-0.34-1.272-0.535-2-0.535h-6v-13h5c0.829 0 1.577 0.335 2.121 0.879s0.879 1.292 0.879 2.121zM22 2h-6c-1.38 0-2.632 0.561-3.536 1.464-0.167 0.167-0.322 0.346-0.464 0.536-0.142-0.19-0.297-0.369-0.464-0.536-0.904-0.903-2.156-1.464-3.536-1.464h-6c-0.552 0-1 0.448-1 1v15c0 0.552 0.448 1 1 1h7c0.553 0 1.051 0.223 1.414 0.586s0.586 0.861 0.586 1.414c0 0.552 0.448 1 1 1s1-0.448 1-1c0-0.553 0.223-1.051 0.586-1.414s0.861-0.586 1.414-0.586h7c0.552 0 1-0.448 1-1v-15c0-0.552-0.448-1-1-1z"></path>
</symbol>
<symbol id="icon-statistic" viewBox="0 0 24 24">
<path d="M13.222 21.778v-12.222c0-0.675-0.548-1.222-1.222-1.222s-1.222 0.548-1.222 1.222v12.222c0 0.675 0.548 1.222 1.222 1.222s1.222-0.548 1.222-1.222zM20.556 21.778v-19.556c0-0.675-0.548-1.222-1.222-1.222s-1.222 0.548-1.222 1.222v19.556c0 0.675 0.548 1.222 1.222 1.222s1.222-0.548 1.222-1.222zM5.889 21.778v-4.889c0-0.675-0.548-1.222-1.222-1.222s-1.222 0.548-1.222 1.222v4.889c0 0.675 0.548 1.222 1.222 1.222s1.222-0.548 1.222-1.222z"></path>
</symbol>
<symbol id="icon-audio-call" viewBox="0 0 24 24">
<path d="M10 7.081v9.839l-3.375-2.7c-0.17-0.137-0.388-0.22-0.625-0.22h-3v-4h3c0.218 0.001 0.439-0.071 0.625-0.219zM10.375 4.219l-4.726 3.781h-3.649c-0.552 0-1 0.448-1 1v6c0 0.552 0.448 1 1 1h3.649l4.726 3.781c0.431 0.345 1.061 0.275 1.406-0.156 0.148-0.185 0.22-0.407 0.219-0.625v-14c0-0.552-0.448-1-1-1-0.237 0-0.455 0.083-0.625 0.219zM18.363 5.637c1.757 1.758 2.635 4.059 2.635 6.364 0 2.304-0.878 4.605-2.635 6.362-0.39 0.391-0.39 1.024 0 1.414s1.024 0.39 1.414 0c2.147-2.147 3.22-4.963 3.221-7.776s-1.074-5.63-3.221-7.778c-0.39-0.391-1.024-0.391-1.414 0s-0.391 1.024 0 1.414zM14.833 9.167c0.781 0.781 1.171 1.803 1.171 2.828s-0.39 2.047-1.171 2.828c-0.39 0.391-0.39 1.024 0 1.414s1.024 0.39 1.414 0c1.171-1.171 1.757-2.708 1.757-4.242s-0.586-3.071-1.757-4.242c-0.39-0.391-1.024-0.391-1.414 0s-0.391 1.024 0 1.414z"></path>
</symbol>
<symbol id="icon-sprint" viewBox="0 0 24 24">
<path d="M24 0l-18 12 4.5 3-10.5 9 18-9-4.5-3z"></path>
</symbol>
</defs>
</svg>
