<svg width="51" height="98" viewBox="0 0 51 98" fill="none" xmlns="http://www.w3.org/2000/svg">
<path d="M0 8C0 3.58172 3.58172 0 8 0H51V98H8C3.58172 98 0 94.4183 0 90V8Z" fill="black" fill-opacity="0.7"/>
<path d="M20.8004 27C20.66 27 20.522 26.963 20.4004 26.8928L16.0004 24.3552L11.6004 26.8928C11.4788 26.963 11.3408 27 11.2004 27C11.06 27 10.922 26.963 10.8004 26.8928C10.6788 26.8226 10.5778 26.7216 10.5076 26.6C10.4374 26.4784 10.4004 26.3404 10.4004 26.2V13.4C10.401 12.7637 10.6541 12.1536 11.104 11.7036C11.554 11.2537 12.1641 11.0006 12.8004 11H19.2004C19.8367 11.0006 20.4468 11.2537 20.8967 11.7036C21.3467 12.1536 21.5998 12.7637 21.6004 13.4V26.2C21.6004 26.4122 21.5161 26.6157 21.3661 26.7657C21.216 26.9157 21.0126 27 20.8004 27Z" fill="white"/>
<path d="M37.376 25.16C36.4907 25.16 35.6907 24.936 34.976 24.488C34.272 24.04 33.7173 23.3893 33.312 22.536C32.9067 21.672 32.704 20.6267 32.704 19.4C32.704 18.1733 32.9067 17.1333 33.312 16.28C33.7173 15.416 34.272 14.76 34.976 14.312C35.6907 13.864 36.4907 13.64 37.376 13.64C38.272 13.64 39.072 13.864 39.776 14.312C40.48 14.76 41.0347 15.416 41.44 16.28C41.856 17.1333 42.064 18.1733 42.064 19.4C42.064 20.6267 41.856 21.672 41.44 22.536C41.0347 23.3893 40.48 24.04 39.776 24.488C39.072 24.936 38.272 25.16 37.376 25.16ZM37.376 23.352C37.8987 23.352 38.352 23.2133 38.736 22.936C39.12 22.648 39.4187 22.2107 39.632 21.624C39.856 21.0373 39.968 20.296 39.968 19.4C39.968 18.4933 39.856 17.752 39.632 17.176C39.4187 16.5893 39.12 16.1573 38.736 15.88C38.352 15.592 37.8987 15.448 37.376 15.448C36.8747 15.448 36.4267 15.592 36.032 15.88C35.648 16.1573 35.344 16.5893 35.12 17.176C34.9067 17.752 34.8 18.4933 34.8 19.4C34.8 20.296 34.9067 21.0373 35.12 21.624C35.344 22.2107 35.648 22.648 36.032 22.936C36.4267 23.2133 36.8747 23.352 37.376 23.352Z" fill="white"/>
<path d="M23.4829 46.738L18.6864 46.0401L16.5422 41.6878C16.4837 41.5686 16.3873 41.4721 16.2683 41.4135C15.9698 41.266 15.6071 41.3889 15.4579 41.6878L13.3137 46.0401L8.51721 46.738C8.38497 46.7569 8.26407 46.8194 8.1715 46.9139C8.05959 47.0291 7.99793 47.184 8.00005 47.3447C8.00218 47.5054 8.06792 47.6586 8.18284 47.7708L11.6532 51.1584L10.8333 55.942C10.8141 56.0532 10.8264 56.1677 10.8688 56.2723C10.9112 56.377 10.9821 56.4676 11.0733 56.534C11.1646 56.6003 11.2726 56.6398 11.3851 56.6478C11.4976 56.6558 11.6101 56.6321 11.7098 56.5794L16 54.321L20.2902 56.5794C20.4074 56.6418 20.5434 56.6626 20.6737 56.6399C21.0024 56.5832 21.2235 56.2711 21.1668 55.942L20.3469 51.1584L23.8172 47.7708C23.9117 47.6781 23.974 47.557 23.9929 47.4246C24.0439 47.0936 23.8135 46.7872 23.4829 46.738Z" fill="white"/>
<path d="M37.376 55.16C36.4907 55.16 35.6907 54.936 34.976 54.488C34.272 54.04 33.7173 53.3893 33.312 52.536C32.9067 51.672 32.704 50.6267 32.704 49.4C32.704 48.1733 32.9067 47.1333 33.312 46.28C33.7173 45.416 34.272 44.76 34.976 44.312C35.6907 43.864 36.4907 43.64 37.376 43.64C38.272 43.64 39.072 43.864 39.776 44.312C40.48 44.76 41.0347 45.416 41.44 46.28C41.856 47.1333 42.064 48.1733 42.064 49.4C42.064 50.6267 41.856 51.672 41.44 52.536C41.0347 53.3893 40.48 54.04 39.776 54.488C39.072 54.936 38.272 55.16 37.376 55.16ZM37.376 53.352C37.8987 53.352 38.352 53.2133 38.736 52.936C39.12 52.648 39.4187 52.2107 39.632 51.624C39.856 51.0373 39.968 50.296 39.968 49.4C39.968 48.4933 39.856 47.752 39.632 47.176C39.4187 46.5893 39.12 46.1573 38.736 45.88C38.352 45.592 37.8987 45.448 37.376 45.448C36.8747 45.448 36.4267 45.592 36.032 45.88C35.648 46.1573 35.344 46.5893 35.12 47.176C34.9067 47.752 34.8 48.4933 34.8 49.4C34.8 50.296 34.9067 51.0373 35.12 51.624C35.344 52.2107 35.648 52.648 36.032 52.936C36.4267 53.2133 36.8747 53.352 37.376 53.352Z" fill="white"/>
<path d="M22.7778 72.145C22.7585 72.1016 22.7269 72.0648 22.687 72.0391C22.6472 72.0133 22.6007 71.9997 22.5532 72H15.5997C15.5579 72.0001 15.5169 72.0106 15.4802 72.0307C15.4436 72.0508 15.4126 72.0798 15.3901 72.115L10.0439 80.615C10.0182 80.652 10.0031 80.6954 10.0004 80.7404C9.99775 80.7855 10.0075 80.8304 10.0287 80.8702C10.0499 80.91 10.0816 80.9432 10.1204 80.9661C10.1592 80.989 10.2035 81.0007 10.2486 81H14.0772L10.6978 87.625C10.6784 87.6644 10.6693 87.7081 10.6713 87.752C10.6733 87.7958 10.6864 87.8385 10.7093 87.8759C10.7323 87.9134 10.7643 87.9444 10.8024 87.9661C10.8406 87.9878 10.8836 87.9995 10.9274 88H12.425C12.4596 88.0002 12.4939 87.9932 12.5257 87.9795C12.5575 87.9657 12.5861 87.9454 12.6096 87.92L21.3802 78.425C21.415 78.3895 21.4384 78.3443 21.4474 78.2953C21.4565 78.2464 21.4507 78.1958 21.4308 78.1501C21.411 78.1045 21.378 78.0658 21.3361 78.039C21.2941 78.0123 21.2452 77.9987 21.1955 78H17.831L22.7379 72.41C22.7695 72.3745 22.7902 72.3305 22.7973 72.2835C22.8044 72.2364 22.7976 72.1883 22.7778 72.145Z" fill="white"/>
<path d="M37.376 85.16C36.4907 85.16 35.6907 84.936 34.976 84.488C34.272 84.04 33.7173 83.3893 33.312 82.536C32.9067 81.672 32.704 80.6267 32.704 79.4C32.704 78.1733 32.9067 77.1333 33.312 76.28C33.7173 75.416 34.272 74.76 34.976 74.312C35.6907 73.864 36.4907 73.64 37.376 73.64C38.272 73.64 39.072 73.864 39.776 74.312C40.48 74.76 41.0347 75.416 41.44 76.28C41.856 77.1333 42.064 78.1733 42.064 79.4C42.064 80.6267 41.856 81.672 41.44 82.536C41.0347 83.3893 40.48 84.04 39.776 84.488C39.072 84.936 38.272 85.16 37.376 85.16ZM37.376 83.352C37.8987 83.352 38.352 83.2133 38.736 82.936C39.12 82.648 39.4187 82.2107 39.632 81.624C39.856 81.0373 39.968 80.296 39.968 79.4C39.968 78.4933 39.856 77.752 39.632 77.176C39.4187 76.5893 39.12 76.1573 38.736 75.88C38.352 75.592 37.8987 75.448 37.376 75.448C36.8747 75.448 36.4267 75.592 36.032 75.88C35.648 76.1573 35.344 76.5893 35.12 77.176C34.9067 77.752 34.8 78.4933 34.8 79.4C34.8 80.296 34.9067 81.0373 35.12 81.624C35.344 82.2107 35.648 82.648 36.032 82.936C36.4267 83.2133 36.8747 83.352 37.376 83.352Z" fill="white"/>
</svg>
